<?xml version="1.0" encoding="us-ascii" standalone="no"?><svg xmlns="http://www.w3.org/2000/svg" xmlns:xlink="http://www.w3.org/1999/xlink" contentStyleType="text/css" height="398px" preserveAspectRatio="none" style="width:497px;height:398px;background:#FFFFFF;" version="1.1" viewBox="0 0 497 398" width="497px" zoomAndPan="magnify"><defs/><g><!--class Asignatura--><g id="elem_Asignatura"><rect codeLine="1" fill="#F1F1F1" height="162.0781" id="Asignatura" rx="2.5" ry="2.5" style="stroke:#181818;stroke-width:0.5;" width="222" x="7" y="229.08"/><ellipse cx="77.25" cy="245.08" fill="#ADD1B2" rx="11" ry="11" style="stroke:#181818;stroke-width:1.0;"/><path d="M80.2188,250.7206 Q79.6406,251.0175 79,251.1581 Q78.3594,251.3144 77.6563,251.3144 Q75.1563,251.3144 73.8281,249.6738 Q72.5156,248.0175 72.5156,244.8925 Q72.5156,241.7675 73.8281,240.1113 Q75.1563,238.455 77.6563,238.455 Q78.3594,238.455 79,238.6113 Q79.6563,238.7675 80.2188,239.0644 L80.2188,241.7831 Q79.5938,241.205 79,240.9394 Q78.4063,240.6581 77.7813,240.6581 Q76.4375,240.6581 75.75,241.7363 Q75.0625,242.7988 75.0625,244.8925 Q75.0625,246.9863 75.75,248.0644 Q76.4375,249.1269 77.7813,249.1269 Q78.4063,249.1269 79,248.8613 Q79.5938,248.58 80.2188,248.0019 L80.2188,250.7206 Z " fill="#000000"/><text fill="#000000" font-family="sans-serif" font-size="14" lengthAdjust="spacing" textLength="73" x="97.75" y="249.9267">Asignatura</text><line style="stroke:#181818;stroke-width:0.5;" x1="8" x2="228" y1="261.08" y2="261.08"/><rect fill="none" height="6" style="stroke:#C82930;stroke-width:1.0;" width="6" x="15" y="271.7284"/><text fill="#000000" font-family="sans-serif" font-size="14" lengthAdjust="spacing" textLength="103" x="27" y="278.0751">nombre: String</text><rect fill="none" height="6" style="stroke:#C82930;stroke-width:1.0;" width="6" x="15" y="288.0253"/><text fill="#000000" font-family="sans-serif" font-size="14" lengthAdjust="spacing" textLength="82" x="27" y="294.372">creditos: int</text><rect fill="none" height="6" style="stroke:#C82930;stroke-width:1.0;" width="6" x="15" y="304.3222"/><text fill="#000000" font-family="sans-serif" font-size="14" lengthAdjust="spacing" textLength="113" x="27" y="310.6689">acronimo: String</text><line style="stroke:#181818;stroke-width:0.5;" x1="8" x2="228" y1="317.9706" y2="317.9706"/><ellipse cx="18" cy="331.6191" fill="#84BE84" rx="3" ry="3" style="stroke:#038048;stroke-width:1.0;"/><text fill="#000000" font-family="sans-serif" font-size="14" lengthAdjust="spacing" textLength="83" x="27" y="334.9657">Asignatura()</text><ellipse cx="18" cy="347.9159" fill="#84BE84" rx="3" ry="3" style="stroke:#038048;stroke-width:1.0;"/><text fill="#000000" font-family="sans-serif" font-size="14" lengthAdjust="spacing" textLength="148" x="27" y="351.2626">Asignatura(String, int)</text><ellipse cx="18" cy="364.2128" fill="#84BE84" rx="3" ry="3" style="stroke:#038048;stroke-width:1.0;"/><text fill="#000000" font-family="sans-serif" font-size="14" lengthAdjust="spacing" textLength="196" x="27" y="367.5595">Asignatura(String, int, String)</text><ellipse cx="18" cy="380.5097" fill="#84BE84" rx="3" ry="3" style="stroke:#038048;stroke-width:1.0;"/><text fill="#000000" font-family="sans-serif" font-size="14" lengthAdjust="spacing" textLength="136" x="27" y="383.8564">mostrarAsignatura()</text></g><!--class Examen--><g id="elem_Examen"><rect codeLine="11" fill="#F1F1F1" height="129.4844" id="Examen" rx="2.5" ry="2.5" style="stroke:#181818;stroke-width:0.5;" width="227" x="263.5" y="245.38"/><ellipse cx="345.25" cy="261.38" fill="#ADD1B2" rx="11" ry="11" style="stroke:#181818;stroke-width:1.0;"/><path d="M348.2188,267.0206 Q347.6406,267.3175 347,267.4581 Q346.3594,267.6144 345.6563,267.6144 Q343.1563,267.6144 341.8281,265.9738 Q340.5156,264.3175 340.5156,261.1925 Q340.5156,258.0675 341.8281,256.4113 Q343.1563,254.755 345.6563,254.755 Q346.3594,254.755 347,254.9113 Q347.6563,255.0675 348.2188,255.3644 L348.2188,258.0831 Q347.5938,257.505 347,257.2394 Q346.4063,256.9581 345.7813,256.9581 Q344.4375,256.9581 343.75,258.0363 Q343.0625,259.0988 343.0625,261.1925 Q343.0625,263.2863 343.75,264.3644 Q344.4375,265.4269 345.7813,265.4269 Q346.4063,265.4269 347,265.1613 Q347.5938,264.88 348.2188,264.3019 L348.2188,267.0206 Z " fill="#000000"/><text fill="#000000" font-family="sans-serif" font-size="14" lengthAdjust="spacing" textLength="55" x="365.75" y="266.2267">Examen</text><line style="stroke:#181818;stroke-width:0.5;" x1="264.5" x2="489.5" y1="277.38" y2="277.38"/><rect fill="none" height="6" style="stroke:#C82930;stroke-width:1.0;" width="6" x="271.5" y="288.0284"/><text fill="#000000" font-family="sans-serif" font-size="14" lengthAdjust="spacing" textLength="121" x="283.5" y="294.3751">pregunta1: String</text><rect fill="none" height="6" style="stroke:#C82930;stroke-width:1.0;" width="6" x="271.5" y="304.3253"/><text fill="#000000" font-family="sans-serif" font-size="14" lengthAdjust="spacing" textLength="121" x="283.5" y="310.672">pregunta2: String</text><rect fill="none" height="6" style="stroke:#C82930;stroke-width:1.0;" width="6" x="271.5" y="320.6222"/><text fill="#000000" font-family="sans-serif" font-size="14" lengthAdjust="spacing" textLength="121" x="283.5" y="326.9689">pregunta3: String</text><line style="stroke:#181818;stroke-width:0.5;" x1="264.5" x2="489.5" y1="334.2706" y2="334.2706"/><ellipse cx="274.5" cy="347.9191" fill="#84BE84" rx="3" ry="3" style="stroke:#038048;stroke-width:1.0;"/><text fill="#000000" font-family="sans-serif" font-size="14" lengthAdjust="spacing" textLength="201" x="283.5" y="351.2657">Examen(String, String, String)</text><ellipse cx="274.5" cy="364.2159" fill="#84BE84" rx="3" ry="3" style="stroke:#038048;stroke-width:1.0;"/><text fill="#000000" font-family="sans-serif" font-size="14" lengthAdjust="spacing" textLength="102" x="283.5" y="367.5626">verPreguntas()</text></g><!--class Profesor--><g id="elem_Profesor"><rect codeLine="19" fill="#F1F1F1" height="162.0781" id="Profesor" rx="2.5" ry="2.5" style="stroke:#181818;stroke-width:0.5;" width="263" x="115.5" y="7"/><ellipse cx="213.75" cy="23" fill="#ADD1B2" rx="11" ry="11" style="stroke:#181818;stroke-width:1.0;"/><path d="M216.7188,28.6406 Q216.1406,28.9375 215.5,29.0781 Q214.8594,29.2344 214.1563,29.2344 Q211.6563,29.2344 210.3281,27.5938 Q209.0156,25.9375 209.0156,22.8125 Q209.0156,19.6875 210.3281,18.0313 Q211.6563,16.375 214.1563,16.375 Q214.8594,16.375 215.5,16.5313 Q216.1563,16.6875 216.7188,16.9844 L216.7188,19.7031 Q216.0938,19.125 215.5,18.8594 Q214.9063,18.5781 214.2813,18.5781 Q212.9375,18.5781 212.25,19.6563 Q211.5625,20.7188 211.5625,22.8125 Q211.5625,24.9063 212.25,25.9844 Q212.9375,27.0469 214.2813,27.0469 Q214.9063,27.0469 215.5,26.7813 Q216.0938,26.5 216.7188,25.9219 L216.7188,28.6406 Z " fill="#000000"/><text fill="#000000" font-family="sans-serif" font-size="14" lengthAdjust="spacing" textLength="58" x="234.25" y="27.8467">Profesor</text><line style="stroke:#181818;stroke-width:0.5;" x1="116.5" x2="377.5" y1="39" y2="39"/><rect fill="none" height="6" style="stroke:#C82930;stroke-width:1.0;" width="6" x="123.5" y="49.6484"/><text fill="#000000" font-family="sans-serif" font-size="14" lengthAdjust="spacing" textLength="103" x="135.5" y="55.9951">nombre: String</text><rect fill="none" height="6" style="stroke:#C82930;stroke-width:1.0;" width="6" x="123.5" y="65.9453"/><text fill="#000000" font-family="sans-serif" font-size="14" lengthAdjust="spacing" textLength="154" x="135.5" y="72.292">asignatura: Asignatura</text><rect fill="none" height="6" style="stroke:#C82930;stroke-width:1.0;" width="6" x="123.5" y="82.2422"/><text fill="#000000" font-family="sans-serif" font-size="14" lengthAdjust="spacing" textLength="70" x="135.5" y="88.5889">nie: String</text><rect fill="none" height="6" style="stroke:#C82930;stroke-width:1.0;" width="6" x="123.5" y="98.5391"/><text fill="#000000" font-family="sans-serif" font-size="14" lengthAdjust="spacing" textLength="70" x="135.5" y="104.8857">dni: String</text><line style="stroke:#181818;stroke-width:0.5;" x1="116.5" x2="377.5" y1="112.1875" y2="112.1875"/><ellipse cx="126.5" cy="125.8359" fill="#84BE84" rx="3" ry="3" style="stroke:#038048;stroke-width:1.0;"/><text fill="#000000" font-family="sans-serif" font-size="14" lengthAdjust="spacing" textLength="237" x="135.5" y="129.1826">Profesor(String, Asignatura, String)</text><ellipse cx="126.5" cy="142.1328" fill="#84BE84" rx="3" ry="3" style="stroke:#038048;stroke-width:1.0;"/><text fill="#000000" font-family="sans-serif" font-size="14" lengthAdjust="spacing" textLength="156" x="135.5" y="145.4795">Profesor(String, String)</text><ellipse cx="126.5" cy="158.4297" fill="#84BE84" rx="3" ry="3" style="stroke:#038048;stroke-width:1.0;"/><text fill="#000000" font-family="sans-serif" font-size="14" lengthAdjust="spacing" textLength="89" x="135.5" y="161.7764">verProfesor()</text></g><!--link Profesor to Asignatura--><g id="link_Profesor_Asignatura"><path codeLine="29" d="M199.88,169.43 C188.58,188.71 176.51,209.3 165.21,228.58 " fill="none" id="Profesor-Asignatura" style="stroke:#181818;stroke-width:1.0;"/><text fill="#000000" font-family="sans-serif" font-size="13" lengthAdjust="spacing" textLength="8" x="187.4869" y="189.1417">1</text><text fill="#000000" font-family="sans-serif" font-size="13" lengthAdjust="spacing" textLength="23" x="145.2788" y="218.0008">1..*</text></g><!--link Profesor to Examen--><g id="link_Profesor_Examen"><path codeLine="30" d="M294.48,169.43 C309.21,194.36 325.23,221.48 339.2,245.13 " fill="none" id="Profesor-Examen" style="stroke:#181818;stroke-width:1.0;"/><text fill="#000000" font-family="sans-serif" font-size="13" lengthAdjust="spacing" textLength="8" x="290.2166" y="189.1417">1</text><text fill="#000000" font-family="sans-serif" font-size="13" lengthAdjust="spacing" textLength="8" x="326.6281" y="234.2753">1</text></g><!--SRC=[VP3D3i8W48JlVGhIapzja-gjDm_Uc_W4IB4XaSKir9WOtztQ0bAgvRB9C0ppBRjIhSb1YnQewP2IPqBwanDGyeoy8YU30behCkIDC4fNH82n6cMeG4WriMw3oDLwBetMx1EpV9lPLEUIIXkaE4b_9GaRC8uFAZbuX1lojWD3ouZ2wRi_-Zv26MDzg-bqnUuSQ_jUXvrgL1Uk5IulbdgUAbY4Uo5YUmCYwkY-yIs_AN7JcVK7Y7KC79uWBLEIv_qeYaqQrfmxKhkqDm00]--></g></svg>